<?xml version="1.0" encoding="UTF-8" standalone="no"?>
<svg viewBox="0 0 492.64435 409" xmlns="http://www.w3.org/2000/svg">
<g transform="translate(-10.09684,-348.36218)">
<path d="m-427,625.36218h26v132h-26z" transform="scale(-1,1)"/>
<path d="m405,729.36218-4,28h76l-72-28z"/>
<path d="m363,625.36218h26v132h-26z"/>
<path d="m385,729.36218 4,28h-76l72-28z"/>
<path d="m-137,625.36218h26v132h-26z" transform="scale(-1,1)"/>
<path d="m115,729.36218-4,28h76l-72-28z"/>
<path d="m73,625.36218h26v132h-26z"/>
<path d="m169.40701,488.79953h18v99h-18z" fill="#75507b" transform="matrix(-.81768,.57567,.57567,.81768,0,0)"/>
<path d="m339.96954,366.27417h18v99h-18z" fill="#75507b" transform="rotate(35.14629)"/>
<path d="m167,387.36218h-129l21.65693,112h85.68614l21.65693-112z" fill="#a27630"/>
<path d="m286,379.86218c0,5.79899-4.47715,10.5-10,10.5s-10-4.70101-10-10.5 4.47715-10.5 10-10.5 10,4.70101 10,10.5z" fill="#2e3436" transform="matrix(-.84,0,0,.80952,351.44,116.3547)"/>
<path d="m286,379.86218c0,5.79899-4.47715,10.5-10,10.5s-10-4.70101-10-10.5 4.47715-10.5 10-10.5 10,4.70101 10,10.5z" fill="#2e3436" transform="matrix(-.84,0,0,.80952,326.24,116.3547)"/>
<path d="m152,401.36218 23-1 3-37-125-15-35,25 33,30 101-2z" fill="#2e3436"/>
<path d="m25,380.36218v59l38,26 10-26-14-49-34-10z" fill="#2e3436"/>
<path d="m97.08078,440.56804c7.36689,19.83996 39.56919,24.29715 50.98341,6.03954 12.37523-3.6914-7.56277,17.28147-15.93232,14.75821-13.71096,2.02763-31.39001-2.64244-37.40957-16.08971-.30363-1.90202.71078-3.82344 2.35848-4.70804z" fill="#2e3436"/>
<path d="m69,495.36218-14,137 101-1-16-134-71-2z" fill="#75507b"/>
<path d="m44,517.36218 7,44 107-3 7-50-121,9z" fill="#555753"/>
<path d="m50,560.36218-10,38 132-4-15-36-107,2z" fill="#555753"/>
<path d="m60,559.36218-8-36 105-8-3,44h-94z" fill="#babdb6"/>
<path d="m89,529.86218c0,2.48528-1.34315,4.5-3,4.5s-3-2.01472-3-4.5 1.34315-4.5 3-4.5 3,2.01472 3,4.5z" fill="#555753" transform="matrix(1.16667,0,0,1,-5.83333,2)"/>
<path d="m89,529.86218c0,2.48528-1.34315,4.5-3,4.5s-3-2.01472-3-4.5 1.34315-4.5 3-4.5 3,2.01472 3,4.5z" fill="#555753" transform="matrix(1.16667,0,0,1,14.16667,2)"/>
<path d="m87,537.36218c9.01506,12.50166 31.12304,12.34092 38.95212-1.34502 1.86462,18.50295-28.82725,30.24239-37.83108,12.71331-1.8558-3.43858-2.44094-7.64048-1.12104-11.36829z" fill="#eeeeec"/>
<path d="m393.11438,370.72031h17.97393v50.73721h-17.97393z" fill="#75507b" transform="matrix(-.62536,.78033,.7207,.69325,0,0)"/>
<path d="m539.34918,209.00145h17.97393v50.73721h-17.97393z" fill="#75507b" transform="matrix(.62536,.78033,-.7207,.69325,0,0)"/>
<path d="m73.43254,591.34332c-.12154-.001-.24737.002-.36376.0404s-.2259.12041-.34759.16167c-.31122.10276-.61454.23824-.91343.37183-.39104.18335-.7682.40366-1.1721.55776-.45721.16739-.93076.26541-1.39844.39609-.47929.10472-.92842.28257-1.3661.50118-.50537.2804-.97765.61863-1.42269.98618-.46798.32727-.89821.69739-1.35802,1.03468-.41813.28289-.81811.59093-1.25294.84876-.35828.20643-.66858.4692-1.05085.63051-.35698.18014-.73678.28435-1.11552.40417-.38882.14312-.78524.22311-1.19635.25868-.41902.0704-.81446-.0701-1.22869-.097-.19232-.0328-.349-.32941-.44459-.47692-.24538-.42726-.51438-.80843-.92151-1.09127-.24563-.24695-.57976-.36116-.86493-.54159-.31082-.18398-.6695-.24268-1.00235-.37184-.35572-.10649-.70831-.23505-1.05085-.37992-.44399-.17641-.89938-.31207-1.35802-.44459-.46725-.17079-.93116-.34574-1.40652-.49309-.55951-.1626-1.14319-.19715-1.72178-.21825-.56006-.0387-1.09907-.008-1.63286.16975-.52995.17224-.9665.52059-1.34994.91343-.39933.45664-.76084.95209-1.1236,1.43885-.42763.62312-.81419,1.26195-1.14785,1.94003-.34499.6677-.52564,1.39741-.77601,2.1017-.19649.58788-.37659,1.18656-.53351,1.78645-.11451.50991-.26803,1.00511-.36376,1.51968-.15122.42576-.26124.84843-.26675,1.30144 .03748.48078.09947.93968.34759,1.35802 .21779.23714.45036.46227.68709.67901 .07776.0406.14845.0878.21825.13742 .39603.57877.78803,1.16236 1.16402,1.75411 .50757.82781 1.1247,1.57701 1.74603,2.31995 .74563.85289 1.66846,1.52423 2.54629,2.23103 .80079.6347 1.67609,1.17201 2.54629,1.70561 .53373.36489 1.17824.51785 1.72986.84068 .38452.22975.81411.29599 1.25294.31526 .40838.0227.79974-.12743 1.19635-.20209 .36185-.0451.71733-.12064 1.0751-.194 .59315-.0641 1.17184-.19909 1.76219-.28292 .64091-.005 1.26836-.19902 1.88345-.36376 .71728-.23024 1.44255-.43652 2.15828-.67093 .6482-.19879 1.29-.41222 1.93195-.6305 .59015-.1523 1.16091-.35658 1.74603-.52543 .58427-.13635 1.13138-.38928 1.70561-.55776 .56057-.17804 1.1157-.35711 1.64903-.60626 .47118-.17912.92635-.40034 1.37419-.63051 .32787-.16845.61736-.43154.9781-.5335 .37205-.14274.70866-.36059 1.06702-.53351 .42319-.24593.84101-.4944 1.19635-.8326 .33627-.3147.62323-.68338.88918-1.05893 .22433-.29872.46554-.58405.67901-.88918 .21582-.34938.26247-.75551.28292-1.15593 .01208-.35185.0016-.69888 0-1.05085 .0356-.38078-.0471-.7396-.12934-1.10744-.08266-.37987-.10732-.76862-.12125-1.15593-.01632-.38321-.03788-.76765-.08892-1.14785-.08772-.35808-.12614-.72433-.15359-1.09127-.03902-.28739-.13135-.56295-.21017-.84068 .31546-.17091.54756-.41574.73559-.74367 .22792-.43891.39078-.90925.53351-1.38228 .13986-.5264.21969-1.06217.12125-1.60052-.08387-.47461-.31471-.8878-.63051-1.24485-.28033-.21631-.6095-.34299-.90535-.53351-.11748-.22697-.23238-.46636-.31526-.71134-.08609-.25941-.11607-.53642-.12934-.80835-.07953-.50145-.40971-.85428-.80026-1.14785-.3633-.24449-.78556-.31763-1.21252-.34759l-.35567-.008z" fill="#a27630"/>
<path d="m137.67383,591.34332c.12154-.001.24737.002.36375.0404s.2259.12041.34759.16167c.31122.10276.61454.23824.91343.37183 .39104.18335.7682.40366 1.1721.55776 .45721.16739.93076.26541 1.39844.39609 .47929.10472.92842.28257 1.3661.50118 .50537.2804.97765.61863 1.42269.98618 .46798.32727.89821.69739 1.35802,1.03468 .41813.28289.81811.59093 1.25294.84876 .35828.20643.66858.4692 1.05085.63051 .35698.18014.73677.28435 1.11551.40417 .38882.14312.78525.22311 1.19635.25868 .41903.0704.81446-.0701 1.22869-.097 .19232-.0328.349-.32941.44459-.47692 .24538-.42726.51438-.80843.92151-1.09127 .24563-.24695.57976-.36116.86493-.54159 .31082-.18398.6695-.24268 1.00235-.37184 .35572-.10649.70831-.23505 1.05085-.37992 .44399-.17641.89938-.31207 1.35802-.44459 .46725-.17079.93116-.34574 1.40652-.49309 .55952-.1626 1.14319-.19715 1.72178-.21825 .56005-.0387 1.09906-.008 1.63285.16975 .52996.17224.96651.52059 1.34994.91343 .39933.45664.76084.95209 1.1236,1.43885 .42763.62312.81419,1.26195 1.14785,1.94003 .34499.6677.52564,1.39741.77601,2.1017 .19649.58788.37659,1.18656.53351,1.78645 .11451.50991.26803,1.00511.36376,1.51968 .15121.42576.26124.84843.26675,1.30144-.0375.48078-.0995.93968-.34759,1.35802-.21779.23714-.45035.46227-.68709.67901-.0778.0406-.14845.0878-.21825.13742-.39603.57877-.78803,1.16236-1.16402,1.75411-.50757.82781-1.1247,1.57701-1.74603,2.31995-.74563.85289-1.66846,1.52423-2.54629,2.23103-.80079.6347-1.67609,1.17201-2.54628,1.70561-.53374.36489-1.17824.51785-1.72986.84068-.38452.22975-.81411.29599-1.25294.31526-.40838.0227-.79974-.12743-1.19635-.20209-.36185-.0451-.71733-.12064-1.0751-.194-.59315-.0641-1.17184-.19909-1.76219-.28292-.64091-.005-1.26836-.19902-1.88345-.36376-.71727-.23024-1.44255-.43652-2.15828-.67093-.6482-.19879-1.28999-.41222-1.93194-.6305-.59015-.1523-1.16092-.35658-1.74603-.52543-.58427-.13635-1.13138-.38928-1.70561-.55776-.56057-.17804-1.1157-.35711-1.64902-.60626-.47119-.17912-.92636-.40034-1.37419-.63051-.32787-.16845-.61736-.43154-.9781-.5335-.37205-.14274-.70866-.36059-1.06702-.53351-.42318-.24593-.84101-.4944-1.19635-.8326-.33627-.3147-.62323-.68338-.88918-1.05893-.22433-.29872-.46553-.58405-.67901-.88918-.21581-.34938-.26247-.75551-.28292-1.15593-.0121-.35185-.002-.69888 0-1.05085-.0356-.38078.0471-.7396.12934-1.10744 .0827-.37987.10732-.76862.12125-1.15593 .0163-.38321.0379-.76765.0889-1.14785 .0877-.35808.12614-.72433.15358-1.09127 .039-.28739.13135-.56295.21017-.84068-.31546-.17091-.54756-.41574-.73559-.74367-.22792-.43891-.39078-.90925-.53351-1.38228-.13986-.5264-.21969-1.06217-.12125-1.60052 .0839-.47461.31471-.8878.63051-1.24485 .28033-.21631.6095-.34299.90535-.53351 .11748-.22697.23238-.46636.31525-.71134 .0861-.25941.11607-.53642.12934-.80835 .0795-.50145.4097-.85428.80026-1.14785 .3633-.24449.78556-.31763 1.21252-.34759l.35567-.008z" fill="#a27630"/>
<path d="m95,729.36218 4,28h-76l72-28z"/>
<path d="m100,563.36218v28" fill="none" stroke="#2e3436"/>
<path d="m80,563.36218v28" fill="none" stroke="#2e3436"/>
<path d="m60,563.36218v28" fill="none" stroke="#2e3436"/>
<path d="m120,563.36218v28" fill="none" stroke="#2e3436"/>
<path d="m140,563.36218v28" fill="none" stroke="#2e3436"/>
<path d="m139.10344,563.36218h-78.2069" fill="none" stroke="#2e3436"/>
<path d="m139.10344,575.36218h-78.2069" fill="none" stroke="#2e3436"/>
<path d="m139.10344,589.36218h-78.2069" fill="none" stroke="#2e3436"/>
<g transform="matrix(.95979,-.28073,.28073,.95979,245.12755,52.07311)">
<path d="m-170.5,386.36218h80l-5.5,108h-69l-5.5-108z" fill="#d3d7cf"/>
<path d="m-159.79471,423.01801h12.05296v13.8609h-12.05296z" fill="#eeeeec"/>
<path d="m-161,402.52798h12.05296v13.8609h-12.05296z" fill="#eeeeec"/>
<path d="m-154.3129,407.86461c.44531,1.3023.99635,2.56313 1.59946,3.79931 .40264.80468.17527.0725-.25104.002-.70354-.11556-1.03002.4167-.51769-.30964 .73177-1.41218 1.71694-2.65743 2.63025-3.95207 1.2991-1.91764 2.7368-3.73325 4.20849-5.52051 1.05236-1.30164 2.1424-2.57109 3.19632-3.87138l.6632-.80154c1.09007-1.31043 2.9433.23116 1.85323,1.54159l-.64424.77845c-1.05859,1.30434-2.15253,2.57823-3.20783,3.88547-1.43429,1.74081-2.83568,3.50872-4.09977,5.37804-.91536,1.2961-1.89083,2.54434-2.63162,3.95401-.12597.17766-.56982.83071-.72672.92017-1.28326.73176-2.07987.24121-2.63938-.94874-.62808-1.28915-1.20517-2.60316-1.67084-3.96043-.63306-1.58263 1.60512-2.4779 2.23818-.89526z" fill="#c00"/>
<path d="m-153.72373,425.77156c.68735,1.24577 1.29003,2.54565 2.12178,3.70449 .93534.76095.0603.16515.0415.14064-.0459-.0599.28922-.28665.49522-.44991 1.58838-1.44688 3.05816-3.00686 4.52386-4.5762 1.81283-1.86617 3.61943-3.72188 5.63943-5.36612l.65479-.4949c1.36078-1.02653 2.81251.8979 1.45173,1.92443l-.58739.44216c-1.93924,1.56882-3.65525,3.35874-5.39684,5.13982-1.54876,1.65824-3.10378,3.30584-4.79293,4.82368-1.5111,1.18671-2.69371,1.5585-3.99999-.19523-.84789-1.21969-1.52723-2.53983-2.21821-3.85262-.87699-1.46164 1.19008-2.70188 2.06706-1.24024z" fill="#c00"/>
<path d="m-159.79471,467.01801h12.05296v13.8609h-12.05296z" fill="#eeeeec"/>
<path d="m-161,446.52798h12.05296v13.8609h-12.05296z" fill="#eeeeec"/>
<path d="m-154.3129,451.86461c.44531,1.3023.99635,2.56313 1.59946,3.79931 .40264.80468.17527.0725-.25104.002-.70354-.11556-1.03002.4167-.51769-.30964 .73177-1.41218 1.71694-2.65743 2.63025-3.95207 1.2991-1.91764 2.7368-3.73325 4.20849-5.52051 1.05236-1.30164 2.1424-2.57109 3.19632-3.87138l.6632-.80154c1.09007-1.31043 2.9433.23116 1.85323,1.54159l-.64424.77845c-1.05859,1.30434-2.15253,2.57823-3.20783,3.88547-1.43429,1.74081-2.83568,3.50872-4.09977,5.37804-.91536,1.2961-1.89083,2.54434-2.63162,3.95401-.12597.17766-.56982.83071-.72672.92017-1.28326.73176-2.07987.24121-2.63938-.94874-.62808-1.28915-1.20517-2.60316-1.67084-3.96043-.63306-1.58263 1.60512-2.4779 2.23818-.89526z" fill="#c00"/>
<path d="m-153.72373,469.77156c.68735,1.24577 1.29003,2.54565 2.12178,3.70449 .93534.76095.0603.16515.0415.14064-.0459-.0599.28922-.28665.49522-.44991 1.58838-1.44688 3.05816-3.00686 4.52386-4.5762 1.81283-1.86617 3.61943-3.72188 5.63943-5.36612l.65479-.4949c1.36078-1.02653 2.81251.8979 1.45173,1.92443l-.58739.44216c-1.93924,1.56882-3.65525,3.35874-5.39684,5.13982-1.54876,1.65824-3.10378,3.30584-4.79293,4.82368-1.5111,1.18671-2.69371,1.5585-3.99999-.19523-.84789-1.21969-1.52723-2.53983-2.21821-3.85262-.87699-1.46164 1.19008-2.70188 2.06706-1.24024z" fill="#c00"/>
</g>
<path d="m362,539.01112-22,118.35106 105-3.98936-11-121.01064-72,6.64894z" fill="#73d216"/>
<path d="m332,428.36218h129l-21.65693,112h-85.68614l-21.65693-112z" fill="#f6e1c1"/>
<path d="m336.5076,487.66954c9.3351,10.73114 49.43803,8.65908 63.15256-2.03615-2.57305,7.66199-27.97762,33.57018-36.7879,33.89177-8.81867-.0895-14.3789-6.57192-15.94321-13.23673-3.27111-6.51649-6.4591-13.30289-11.33971-19.08648l.91826.46759z" fill="#fff"/>
<path d="m286,379.86218c0,5.79899-4.47715,10.5-10,10.5s-10-4.70101-10-10.5 4.47715-10.5 10-10.5 10,4.70101 10,10.5z" fill="#555753" transform="matrix(.84,0,0,.80952,146.56,162.3547)"/>
<path d="m286,379.86218c0,5.79899-4.47715,10.5-10,10.5s-10-4.70101-10-10.5 4.47715-10.5 10-10.5 10,4.70101 10,10.5z" fill="#555753" transform="matrix(.84,0,0,.80952,171.76,162.3547)"/>
<path d="m396,426.36218c1,4 11,24 11,24l-103,4c0,0 11-41 27-49s39-24 77-14 37,17 37,17l-49,18z" fill="#edd400"/>
<path d="m383.07246,429.21278c0,0 33.59421-1.76812 43.31884,10.6087s3.53624,79.56521 3.53624,79.56521l68.07246-27.40579c0,0-51.27536-84.86957-61.88406-86.63769s-60.11594,13.26087-60.11594,13.26087l7.07246,10.6087z" fill="#edd400"/>
<path d="m406,464.36218 11-7" fill="none" stroke="#555753"/>
<path d="m408,468.36218 11-7" fill="none" stroke="#555753"/>
<path d="m373,468.36218-11-7" fill="none" stroke="#555753"/>
<path d="m375,464.36218-11-7" fill="none" stroke="#555753"/>
<path d="m-587.19116,351.33685h18v99h-18z" fill="#73d216" transform="matrix(-.97334,-.22935,-.22935,.97334,0,0)"/>
<path d="m519.77844-559.37427h17.97393v50.73721h-17.97393z" fill="#73d216" transform="matrix(-.16842,.98571,-.99689,-.07875,0,0)"/>
<path d="m296.54614-601.54053h18v99h-18z" fill="#73d216" transform="matrix(-.5087,.86095,-.86095,-.5087,0,0)"/>
<path d="m286.01399,497.22846c-1.1607-.86278-2.47047-1.46534-3.88974-1.82618-1.45363-.2086-2.86314.12245-4.17952.72001-1.2908.77945-1.75385,2.131-2.14413,3.49909-.23922.97273-.27521,1.94354-.12905,2.90044-.66603-.0216-1.34569.0595-2.00722.15778-1.74606.36275-2.72999,1.64268-3.47026,3.1577-.57191,1.36296-.70577,2.85222-.74496,4.31436-.0511,1.32834.22315,2.59389.72446,3.81497 .1888.92753 1.02683,1.22153 1.65343,1.57961-.0384.031-.0811.0525-.13893.0821-.95958.64862-1.76023,1.4927-2.53406,2.34632-.826.82759-1.38365,1.77653-1.80369,2.85535-.34206,1.25392-.10952,2.50943.29951,3.71371 .26481.83039.63167,1.66939.68083,2.54819 .13586,1.04083.1891,2.07637.40301,3.10649 .1978,1.19085.84433,2.20358 1.61512,3.10159 1.14893,1.07661 2.45858,1.00682 3.89397.6733 1.29512-.43803 2.54295-1.05456 3.69735-1.78275 1.06231-.67412 1.87892-1.63134 2.8211-2.45121 1.0732-.91816 1.9903-1.99922 2.87333-3.09602 .93465-1.19074 1.8205-2.41147 2.71483-3.63253s1.77712-2.42362 2.66812-3.6405c.90192-1.20033 1.81806-2.37602 2.47215-3.73157 .64674-1.13505.93954-2.32558.973-3.6218-.0562-1.14427-.1661-2.30417-.28805-3.44257-.22683-1.12037-.5578-2.20463-1.00228-3.25669-.20849-.42988-.41078-.86382-.59502-1.30308 .003-.005.01-.0111.0125-.0171 .13425-.31641.15692-.71457-.0254-1.14831-.5048-1.18243-1.2578-2.21617-2.08222-3.1812-.11923-.25368-.27717-.43732-.4809-.56263-.28982-.31679-.56851-.62218-.87061-.92706-.34773-.34857-.72978-.66218-1.11668-.94978z" fill="#f6e1c1"/>
<path d="m257.75,437.6875c.16545.003.31873.0217.46875.0625-.21559.0595-.28008.0671-.46875-.0625z" fill="#f6e1c1"/>
<path d="m477.92539,447.02813c-.61464.0387-1.21058.35116-1.77485.99391-.99077,1.39135-1.29359,3.03442-1.63285,4.68559-.31073,2.2378-.44826,4.50178-.40822,6.76215 .16378,2.14025.43888,4.27431.35497,6.42493-.007,1.05929.00018,2.12146-.10649,3.17697-.38707-.5074-.67429-1.10827-1.1004-1.57961-.74003-1.15288-1.52852-2.27552-2.32505-3.38995-.76207-1.03448-1.58871-2.07737-2.80425-2.59127-1.25518-.3882-2.44097-.21593-3.17697.99391-.62501,1.31875-.56159,2.56132.10649,3.86916 .76909,1.50476 1.33658,3.11706 2.37829,4.47261 1.00952,1.41055 2.20272,2.68077 3.53194,3.79816 .80637.69697 1.61256,1.40527 2.46703,2.04107-.50176.58731-.49582,1.50539.31948,1.79259 .6439.22822 1.28225.44744 1.95232.5857 .68702.0654 1.36521.21275 2.00558.47921 .72755.21574 1.48164.34226 2.1653.69219 .71611.31711 1.44983.60308 2.21856.76318 .93722.23444 1.84577.2993 2.7865.0177 .85224-.23091 1.67725-.53134 2.53803-.72769 .76866-.29275 1.53386-.60663 2.30729-.88742 .74895-.32593 1.54871-.55333 2.32505-.79868 1.0045-.30946 2.00821-.60476 3.03498-.83417 1.05569-.25964 2.14926-.39193 3.23021-.47921 1.08266-.0698 2.14916-.2072 3.08823-.79868 1.01801-.79706 1.61014-1.81406 1.20689-3.14147-.42154-1.15667-1.17326-1.98957-2.28954-2.53803-1.10843-.39346-2.2257-.34536-3.38995-.28397-1.43705.0687-2.87249.20665-4.27738.53245-1.30944.30724-2.63912.56743-3.8869,1.08265l-.53246.17749c.41971-.63679.83515-1.26609 1.26014-1.89908 .81286-1.32367 1.66268-2.63714 2.28955-4.06439 .64597-1.52798 1.25311-3.06814 1.7571-4.65009 .43591-1.35398.91752-2.81726.44371-4.22413-.67722-1.54515-1.7411-2.37657-3.46095-1.6861-1.17717.71089-2.01573,1.75657-2.91074,2.7865-1.0517,1.34183-2.22169,2.60448-3.03498,4.11764-.81241,1.41534-1.7095,2.7824-2.53803,4.18863-.22036.38259-.37564.69621-.67444,1.01166-.062-.3327-.10063-.69375-.10649-.76318 .008-1.64901.0209-3.30464.10649-4.95182 .11481-1.88939.32817-3.75776.47921-5.644-.002-1.70177.022-3.41721-.15974-5.11154-.22199-1.42509-.59513-2.86816-1.82808-3.76267-.67816-.43803-1.31994-.67768-1.93458-.63895z" fill="#f6e1c1"/>
<path d="m472.8125,460.84375c.33938.0841.35161.24602 0,0z" fill="#f6e1c1"/>
</g>
</svg>
